<svg width="213" height="45" viewBox="0 0 213 45" fill="none" xmlns="http://www.w3.org/2000/svg">
<g clip-path="url(#clip0_1322_14096)">
<rect width="43.4694" height="43.4694" transform="translate(0 0.724304)" fill="#0057D4"/>
<path d="M10.0025 32.459L19.0442 19.8239L19.0152 24.6055L10.2634 12.1733H17.9429L23.0434 19.708L19.7687 19.7369L24.7532 12.1733H32.114L23.3621 24.3447V19.592L32.5487 32.459H24.7242L19.6238 24.5765L22.7825 24.5476L17.798 32.459H10.0025Z" fill="white"/>
<path d="M57.9819 34.459V16.48H50.853V10.1161H73.318V16.48H66.189V34.459H57.9819ZM83.1111 34.8067C80.7927 34.8067 78.7641 34.3778 77.0253 33.52C75.3098 32.6622 73.9767 31.4915 73.0262 30.0077C72.0756 28.5008 71.6004 26.8084 71.6004 24.9305C71.6004 23.0062 72.064 21.3022 72.9914 19.8185C73.9419 18.3347 75.2286 17.1756 76.8515 16.3409C78.4975 15.5063 80.3406 15.089 82.3808 15.089C84.2587 15.089 85.9858 15.46 87.5623 16.2018C89.162 16.9437 90.4371 18.0449 91.3876 19.5055C92.3613 20.9661 92.8482 22.7744 92.8482 24.9305C92.8482 25.2087 92.8366 25.5217 92.8134 25.8694C92.7902 26.194 92.7671 26.4954 92.7439 26.7736H78.1034V22.9831H88.5708L85.6149 23.9916C85.6149 23.2497 85.4758 22.6237 85.1976 22.1137C84.9426 21.5805 84.5832 21.1747 84.1195 20.8965C83.6559 20.5951 83.0995 20.4445 82.4503 20.4445C81.8012 20.4445 81.2332 20.5951 80.7463 20.8965C80.2827 21.1747 79.9233 21.5805 79.6683 22.1137C79.4133 22.6237 79.2858 23.2497 79.2858 23.9916V25.1739C79.2858 25.9854 79.448 26.6809 79.7726 27.2605C80.0972 27.84 80.5609 28.2805 81.1636 28.5819C81.7664 28.8601 82.4967 28.9992 83.3545 28.9992C84.2355 28.9992 84.9542 28.8833 85.5106 28.6515C86.0902 28.4196 86.6929 28.0719 87.3189 27.6082L91.4224 31.7465C90.4951 32.7434 89.3475 33.5085 87.9796 34.0417C86.635 34.5517 85.0121 34.8067 83.1111 34.8067ZM94.6329 34.459V8.65555H102.492V34.459H94.6329ZM115.782 34.8067C113.464 34.8067 111.435 34.3778 109.697 33.52C107.981 32.6622 106.648 31.4915 105.697 30.0077C104.747 28.5008 104.272 26.8084 104.272 24.9305C104.272 23.0062 104.735 21.3022 105.663 19.8185C106.613 18.3347 107.9 17.1756 109.523 16.3409C111.169 15.5063 113.012 15.089 115.052 15.089C116.93 15.089 118.657 15.46 120.234 16.2018C121.833 16.9437 123.108 18.0449 124.059 19.5055C125.033 20.9661 125.52 22.7744 125.52 24.9305C125.52 25.2087 125.508 25.5217 125.485 25.8694C125.462 26.194 125.438 26.4954 125.415 26.7736H110.775V22.9831H121.242L118.286 23.9916C118.286 23.2497 118.147 22.6237 117.869 22.1137C117.614 21.5805 117.255 21.1747 116.791 20.8965C116.327 20.5951 115.771 20.4445 115.122 20.4445C114.473 20.4445 113.905 20.5951 113.418 20.8965C112.954 21.1747 112.595 21.5805 112.34 22.1137C112.085 22.6237 111.957 23.2497 111.957 23.9916V25.1739C111.957 25.9854 112.119 26.6809 112.444 27.2605C112.769 27.84 113.232 28.2805 113.835 28.5819C114.438 28.8601 115.168 28.9992 116.026 28.9992C116.907 28.9992 117.625 28.8833 118.182 28.6515C118.761 28.4196 119.364 28.0719 119.99 27.6082L124.094 31.7465C123.166 32.7434 122.019 33.5085 120.651 34.0417C119.306 34.5517 117.683 34.8067 115.782 34.8067ZM137.528 34.8067C135.349 34.8067 133.413 34.3894 131.721 33.5548C130.028 32.7202 128.695 31.561 127.722 30.0773C126.771 28.5703 126.296 26.8547 126.296 24.9305C126.296 23.0062 126.771 21.3022 127.722 19.8185C128.695 18.3347 130.028 17.1756 131.721 16.3409C133.413 15.5063 135.349 15.089 137.528 15.089C139.847 15.089 141.829 15.5875 143.475 16.5844C145.121 17.5813 146.257 18.9607 146.883 20.7227L140.797 23.7134C140.403 22.8324 139.916 22.1948 139.337 21.8007C138.78 21.4066 138.166 21.2095 137.493 21.2095C136.914 21.2095 136.369 21.3486 135.859 21.6268C135.372 21.905 134.978 22.3223 134.677 22.8787C134.398 23.412 134.259 24.0959 134.259 24.9305C134.259 25.7651 134.398 26.4606 134.677 27.017C134.978 27.5734 135.372 27.9907 135.859 28.2689C136.369 28.5471 136.914 28.6862 137.493 28.6862C138.166 28.6862 138.78 28.4892 139.337 28.0951C139.916 27.7009 140.403 27.0634 140.797 26.1824L146.883 29.1731C146.257 30.9351 145.121 32.3145 143.475 33.3114C141.829 34.3083 139.847 34.8067 137.528 34.8067ZM157.884 34.8067C155.728 34.8067 153.815 34.3894 152.146 33.5548C150.5 32.697 149.202 31.5262 148.251 30.0425C147.301 28.5587 146.826 26.8547 146.826 24.9305C146.826 23.0062 147.301 21.3022 148.251 19.8185C149.202 18.3347 150.5 17.1756 152.146 16.3409C153.815 15.5063 155.728 15.089 157.884 15.089C160.04 15.089 161.953 15.5063 163.622 16.3409C165.291 17.1756 166.59 18.3347 167.517 19.8185C168.467 21.3022 168.943 23.0062 168.943 24.9305C168.943 26.8547 168.467 28.5587 167.517 30.0425C166.59 31.5262 165.291 32.697 163.622 33.5548C161.953 34.3894 160.04 34.8067 157.884 34.8067ZM157.884 28.6862C158.464 28.6862 158.985 28.5471 159.449 28.2689C159.913 27.9907 160.284 27.5734 160.562 27.017C160.84 26.4374 160.979 25.7419 160.979 24.9305C160.979 24.0959 160.84 23.412 160.562 22.8787C160.284 22.3223 159.913 21.905 159.449 21.6268C158.985 21.3486 158.464 21.2095 157.884 21.2095C157.305 21.2095 156.783 21.3486 156.319 21.6268C155.856 21.905 155.485 22.3223 155.206 22.8787C154.928 23.412 154.789 24.0959 154.789 24.9305C154.789 25.7419 154.928 26.4374 155.206 27.017C155.485 27.5734 155.856 27.9907 156.319 28.2689C156.783 28.5471 157.305 28.6862 157.884 28.6862ZM195.885 15.089C197.322 15.089 198.609 15.3904 199.745 15.9932C200.904 16.5728 201.808 17.4885 202.457 18.7405C203.129 19.9924 203.466 21.6152 203.466 23.609V34.459H195.606V24.9653C195.606 23.7829 195.409 22.9483 195.015 22.4614C194.621 21.9514 194.111 21.6964 193.485 21.6964C193.021 21.6964 192.604 21.8123 192.233 22.0441C191.862 22.276 191.561 22.6469 191.329 23.1569C191.12 23.6438 191.016 24.3161 191.016 25.1739V34.459H183.157V24.9653C183.157 23.7829 182.971 22.9483 182.6 22.4614C182.229 21.9514 181.708 21.6964 181.035 21.6964C180.572 21.6964 180.154 21.8123 179.783 22.0441C179.413 22.276 179.111 22.6469 178.879 23.1569C178.671 23.6438 178.566 24.3161 178.566 25.1739V34.459H170.707V15.4368H178.184V20.8965L176.654 19.3664C177.372 17.929 178.334 16.8626 179.54 16.1671C180.746 15.4484 182.09 15.089 183.574 15.089C185.243 15.089 186.715 15.5295 187.99 16.4105C189.289 17.2683 190.158 18.6361 190.599 20.514L188.199 20.1315C188.895 18.555 189.903 17.3262 191.225 16.4453C192.569 15.5411 194.123 15.089 195.885 15.089Z" fill="#0057D4"/>
</g>
<rect x="2.17347" y="2.17347" width="208.612" height="40.5714" rx="3.62245" stroke="#0057D4" stroke-width="4.34694"/>
<defs>
<clipPath id="clip0_1322_14096">
<rect width="212.959" height="44.9184" rx="5.79592" fill="white"/>
</clipPath>
</defs>
</svg>
