<?xml version="1.0" encoding="UTF-8"?>
<svg version="1.1" xmlns="http://www.w3.org/2000/svg" width="1002" height="355">
<path d="M0 0 C2.76590794 2.48939706 5.46292693 5.04345682 8.13378906 7.63427734 C9.49201788 8.94531422 10.87389952 10.23172933 12.2578125 11.515625 C33.52399669 31.74197999 47.02199185 59.77497484 53.609375 88.05859375 C53.77308594 88.71456543 53.93679688 89.37053711 54.10546875 90.04638672 C59.20565104 111.04248841 58.91322069 137.14587609 53.609375 158.05859375 C53.41601562 158.86441895 53.22265625 159.67024414 53.0234375 160.50048828 C43.02412351 201.4776153 17.59396084 237.49233764 -18.515625 259.62109375 C-45.75351322 275.71218191 -73.86786598 283.24968441 -105.46704102 283.17211914 C-107.08411151 283.17183668 -108.70118214 283.17199615 -110.31825256 283.17256165 C-114.68536029 283.17284733 -119.05244029 283.1669876 -123.4195416 283.15998769 C-127.99192745 283.15371605 -132.564314 283.15314734 -137.13670349 283.15196228 C-145.78498908 283.14886017 -154.43326195 283.14066193 -163.08154196 283.13061279 C-172.93162197 283.1194168 -182.78170262 283.11393243 -192.63178742 283.10891736 C-212.88474036 283.09847835 -233.13768188 283.08090067 -253.390625 283.05859375 C-250.27940267 273.26207249 -244.22644126 267.06524537 -235.6875 261.53125 C-227.0828197 257.6876902 -218.33188556 256.61610337 -208.99755859 256.68969727 C-207.39505501 256.68404755 -207.39505501 256.68404755 -205.76017761 256.67828369 C-203.46371712 256.67189721 -201.16723014 256.67213753 -198.8707695 256.6784687 C-195.22914927 256.68765107 -191.588036 256.67727469 -187.94644165 256.66184998 C-177.60102017 256.62193957 -167.25564199 256.62054934 -156.91015625 256.62280273 C-150.56143283 256.62285394 -144.21298557 256.60364164 -137.86433792 256.57346916 C-134.28920583 256.56268889 -130.71461034 256.57474478 -127.13949585 256.58729553 C-124.93462604 256.57838767 -122.72976054 256.56831209 -120.52490234 256.55688477 C-119.05021233 256.57150002 -119.05021233 256.57150002 -117.54573059 256.58641052 C-107.26870981 256.4806184 -99.04025392 252.87210044 -91.390625 246.05859375 C-81.30868947 235.41655069 -81.0738841 222.00902382 -81.08984375 208.109375 C-81.08594708 206.68311948 -81.08161045 205.25686511 -81.07685852 203.83061218 C-81.06944566 200.85961113 -81.06965319 197.88872906 -81.07495117 194.91772461 C-81.08076567 191.12503945 -81.06374366 187.3328395 -81.0406065 183.54023457 C-81.0258316 180.60185438 -81.02500208 177.66359043 -81.02811623 174.72517967 C-81.02760577 173.32703878 -81.02242017 171.92889091 -81.01230431 170.53078651 C-80.95839878 162.04698925 -80.96791605 155.74897268 -86.078125 148.74609375 C-89.34951788 146.35886111 -92.33892889 145.29347468 -96.390625 145.05859375 C-100.83296992 145.83117548 -103.6821223 147.33192432 -106.828125 150.55859375 C-109.36890931 154.62384865 -109.5183117 157.70082822 -109.5324707 162.40673828 C-109.53950516 163.71885284 -109.54653961 165.03096741 -109.55378723 166.38284302 C-109.55560312 167.08441654 -109.55741901 167.78599007 -109.55928993 168.50882339 C-109.56647586 170.71275495 -109.58216059 172.91646648 -109.60063171 175.12033081 C-109.65298334 181.38650388 -109.70100861 187.65255853 -109.71655273 193.91894531 C-109.72669004 197.75466027 -109.7561623 201.58982362 -109.79787254 205.42531967 C-109.81011052 206.88036787 -109.81531708 208.33549426 -109.81307411 209.79059219 C-109.80180197 219.49503835 -110.97900848 226.49892238 -116.078125 234.80859375 C-122.38487282 240.94488893 -127.51078412 242.07194476 -136.390625 243.05859375 C-136.390625 229.52859375 -136.390625 215.99859375 -136.390625 202.05859375 C-142.330625 202.05859375 -148.270625 202.05859375 -154.390625 202.05859375 C-163.53964591 196.8305818 -163.53964591 196.8305818 -165.390625 191.05859375 C-166.16600835 186.01460519 -166.0005514 182.27844655 -163.703125 177.68359375 C-160.31319222 173.83556194 -157.49423762 171.03835841 -152.390625 170.05859375 C-149.63092092 169.98932407 -146.89866458 169.96442015 -144.140625 169.99609375 C-143.39554687 170.00060547 -142.65046875 170.00511719 -141.8828125 170.00976562 C-140.0520486 170.02150129 -138.22132627 170.03943525 -136.390625 170.05859375 C-136.42542969 169.115 -136.46023437 168.17140625 -136.49609375 167.19921875 C-136.80118394 152.72922698 -134.51618034 141.14615987 -124.54296875 129.9921875 C-115.42946919 121.32781318 -104.58817186 118.53677924 -92.3515625 118.78515625 C-80.59667787 119.59663744 -72.08570921 124.8997102 -64.140625 133.30859375 C-57.88139469 140.99750898 -55.24489396 149.8542422 -55.22949219 159.57421875 C-55.22452728 160.32605942 -55.21956238 161.07790009 -55.21444702 161.8525238 C-55.19985524 164.33788985 -55.19302578 166.82319191 -55.1875 169.30859375 C-55.18174287 171.04532878 -55.17598522 172.7820638 -55.17022705 174.51879883 C-55.1597233 178.16373998 -55.1538776 181.80865913 -55.15039062 185.45361328 C-55.14492954 190.09563965 -55.12095031 194.73736919 -55.09241867 199.37930298 C-55.07366912 202.970691 -55.06858002 206.56200958 -55.06705475 210.15344238 C-55.06405168 211.86285003 -55.05610371 213.57225715 -55.04286957 215.28161621 C-54.95378739 227.68020443 -55.963907 238.68832747 -61.390625 250.05859375 C-39.7050655 242.55350446 -21.24618938 230.727264 -5.390625 214.05859375 C-4.73707031 213.38828125 -4.08351563 212.71796875 -3.41015625 212.02734375 C19.7050407 187.51966505 31.12043818 153.16905 30.7578125 119.84375 C29.53337783 88.62066594 18.38032886 60.14551827 -1.390625 36.05859375 C-2.05964844 35.23488281 -2.72867187 34.41117187 -3.41796875 33.5625 C-8.46162988 27.61118615 -14.21723986 22.80279795 -20.390625 18.05859375 C-21.29039062 17.36636719 -22.19015625 16.67414063 -23.1171875 15.9609375 C-52.47269321 -5.99224328 -88.20698981 -13.9279829 -124.4296875 -9.29296875 C-157.54922756 -3.98984912 -189.45501196 14.73569905 -209.61669922 41.69824219 C-231.03333029 71.35710614 -240.7229417 107.00767369 -235.5703125 143.49511719 C-230.91207819 171.25868922 -218.3565854 195.43562243 -199.390625 216.05859375 C-198.77703125 216.74308594 -198.1634375 217.42757812 -197.53125 218.1328125 C-190.04182952 226.08568722 -180.67083901 232.67958959 -171.12109375 237.90234375 C-170.55003906 238.28390625 -169.97898437 238.66546875 -169.390625 239.05859375 C-169.390625 239.71859375 -169.390625 240.37859375 -169.390625 241.05859375 C-175.34944343 241.28229322 -181.30578286 241.44494446 -187.26782227 241.55297852 C-189.2923442 241.59803967 -191.31657647 241.65931142 -193.34008789 241.73754883 C-210.11350668 242.36949492 -210.11350668 242.36949492 -215.61962891 239.19970703 C-217.89323772 236.94578315 -219.64318652 234.73302531 -221.390625 232.05859375 C-222.2259375 231.1253125 -223.06125 230.19203125 -223.921875 229.23046875 C-252.4525 194.13327133 -267.02956307 152.07896694 -262.92578125 106.67553711 C-259.37188632 73.88384216 -246.07951945 42.89703062 -224.390625 18.05859375 C-223.54757813 17.08148438 -222.70453125 16.104375 -221.8359375 15.09765625 C-196.07163833 -14.22848406 -157.8907089 -33.74661266 -118.87792969 -36.79638672 C-76.11058544 -39.28988912 -32.79319224 -28.83960291 0 0 Z " fill="#2A89FB" transform="translate(298.390625,50.94140625)"/>
<path d="M0 0 C6.6 0 13.2 0 20 0 C20.33 18.81 20.66 37.62 21 57 C23.64 54.69 26.28 52.38 29 50 C40.71598983 42.9704061 53.99104616 41.21843015 67.25 44.25 C78.88392244 47.54375986 88.95548903 54.10015191 95.04296875 64.8984375 C98.94971254 73.47732795 100.1293267 82.30926685 100.11352539 91.67944336 C100.11367142 92.41198334 100.11381744 93.14452332 100.1139679 93.89926147 C100.11327686 96.29615343 100.10552276 98.69296554 100.09765625 101.08984375 C100.09578919 102.76135719 100.09436665 104.43287119 100.09336853 106.10438538 C100.08956603 110.48554009 100.07975529 114.86666121 100.06866455 119.24780273 C100.0584015 123.72574408 100.05386046 128.20369089 100.04882812 132.68164062 C100.03813083 141.45444416 100.02055257 150.22721402 100 159 C93.07 159 86.14 159 79 159 C78.970271 155.93537476 78.970271 155.93537476 78.93994141 152.80883789 C78.87280323 146.03140502 78.79516816 139.25412099 78.71247292 132.476861 C78.66269098 128.3709197 78.61636054 124.26500189 78.578125 120.15893555 C78.54104199 116.19064716 78.49462221 112.22256447 78.44193649 108.25445366 C78.42351403 106.74636916 78.40836208 105.23824078 78.39665604 103.73008919 C78.29926755 91.60838945 77.88959117 80.8411391 70 71 C63.02548563 65.028752 57.20651636 63.63060716 48.171875 63.71875 C40.68035028 64.38302313 34.19267774 67.56580237 29 73 C24.08894475 80.26398423 21.7767702 87.40767946 21.68115234 96.22045898 C21.67110672 96.90423111 21.6610611 97.58800323 21.65071106 98.29249573 C21.62010091 100.52702073 21.60290656 102.76142719 21.5859375 104.99609375 C21.56720793 106.55551661 21.54763321 108.11492952 21.5272522 109.67433167 C21.47611372 113.75949213 21.4363907 117.84468539 21.39910889 121.92999268 C21.35895401 126.10640452 21.30791429 130.28268211 21.2578125 134.45898438 C21.16126989 142.63923758 21.07780365 150.81954708 21 159 C14.07 159 7.14 159 0 159 C0 106.53 0 54.06 0 0 Z " fill="#000000" transform="translate(853,62)"/>
<path d="M0 0 C6.6 0 13.2 0 20 0 C20.33 18.81 20.66 37.62 21 57 C23.97 54.36 26.94 51.72 30 49 C33.51171875 47.16015625 33.51171875 47.16015625 36.6875 46.0625 C37.74324219 45.68222656 38.79898438 45.30195312 39.88671875 44.91015625 C52.36224575 41.26298211 65.24775978 42.42572617 77.125 47.625 C87.28343406 53.28500068 94.50810955 61.89339288 98 73 C100.29334454 82.73231198 100.26248017 92.43407829 100.1953125 102.359375 C100.1915733 104.00132066 100.18873063 105.64326858 100.18673706 107.28521729 C100.17917187 111.56606418 100.15958625 115.84677113 100.1373291 120.12756348 C100.11671565 124.51210641 100.1077025 128.89667238 100.09765625 133.28125 C100.0763322 141.85423743 100.04120984 150.42708508 100 159 C93.07 159 86.14 159 79 159 C78.98541748 157.00291992 78.97083496 155.00583984 78.95581055 152.94824219 C78.90518829 146.30649373 78.83854699 139.66497297 78.76428509 133.02344894 C78.71979707 129.00165611 78.68049533 124.97995957 78.65356445 120.95800781 C78.62731381 117.06743646 78.58676313 113.17724005 78.53681374 109.28690338 C78.52029055 107.81201131 78.50868665 106.3370546 78.50238609 104.86208344 C78.44363907 92.3589208 77.8495542 79.68105594 69 70 C61.48166822 63.95925944 54.44941332 63.36845031 45 64 C37.93976035 65.20057117 32.63376593 68.56870137 28 74 C23.66942243 80.98480254 21.89625244 86.78766063 21.79467773 94.97167969 C21.77982834 96.01131111 21.77982834 96.01131111 21.76467896 97.07194519 C21.73317581 99.35522078 21.70835098 101.63851714 21.68359375 103.921875 C21.66301455 105.508001 21.64201782 107.09412164 21.62062073 108.68023682 C21.56549979 112.84930061 21.51604663 117.01841308 21.46777344 121.18756104 C21.41748544 125.44409503 21.36183751 129.70055858 21.30664062 133.95703125 C21.19918111 142.30462948 21.09820466 150.65228775 21 159 C14.07 159 7.14 159 0 159 C0 106.53 0 54.06 0 0 Z " fill="#000000" transform="translate(505,62)"/>
<path d="M0 0 C6.93 0 13.86 0 21 0 C21.01458252 2.15901855 21.02916504 4.31803711 21.04418945 6.54248047 C21.09471638 13.70710552 21.16134247 20.87151736 21.23571491 28.03593254 C21.28028243 32.37614937 21.31956784 36.71627527 21.34643555 41.05664062 C21.37260534 45.25193153 21.41310235 49.44686994 21.46318626 53.64194107 C21.47976311 55.23571484 21.49133419 56.82954946 21.49761391 58.42339706 C21.54711817 69.84175819 21.59515891 80.68259025 30.0078125 89.3046875 C36.79445027 95.07998317 43.65294796 95.65510567 52.40625 95.375 C60.45299489 94.53533966 65.18770317 91.47184208 70.4921875 85.48828125 C75.91695241 76.53601377 75.47266952 67.01880438 75.51171875 56.93359375 C75.52858821 55.28734517 75.54674146 53.6411093 75.56611633 51.99488831 C75.61337668 47.68944265 75.64334033 43.38404853 75.66955566 39.07843018 C75.69948295 34.67392812 75.7459711 30.26960318 75.79101562 25.86523438 C75.8767758 17.24356247 75.94270842 8.62190812 76 0 C82.93 0 89.86 0 97 0 C97.06805686 9.83229659 97.12297722 19.66443408 97.15543652 29.49691391 C97.17102345 34.06362482 97.19213267 38.63016478 97.22631836 43.19677734 C97.25916263 47.61235459 97.2769053 52.02776848 97.28463173 56.44345856 C97.29013062 58.11938291 97.30086722 59.79529938 97.31719017 61.47115326 C97.45742037 76.47942583 96.19872702 90.75126057 85.7734375 102.51171875 C74.47550161 113.36132385 61.65314091 116.36957213 46.39575195 116.30273438 C33.61556427 115.99699503 22.17856762 112.21873313 12.75 103.4375 C0.53766234 90.53389794 -0.30322934 76.05871842 -0.1953125 59.27734375 C-0.19157665 57.56384955 -0.18873238 55.85035319 -0.18673706 54.13685608 C-0.1791456 49.65375748 -0.15953627 45.17079099 -0.1373291 40.68774414 C-0.11677338 36.10239447 -0.10771465 31.51702321 -0.09765625 26.93164062 C-0.07628562 17.95436006 -0.04114067 8.97721175 0 0 Z " fill="#000000" transform="translate(632,108)"/>
<path d="M0 0 C1.80592444 1.93734147 3.39977546 3.883574 5 6 C3.03043732 8.36068151 1.02646358 10.68798928 -1 13 C-1.5259375 13.60585937 -2.051875 14.21171875 -2.59375 14.8359375 C-4.125 16.5 -4.125 16.5 -7 19 C-9.078125 18.796875 -9.078125 18.796875 -11 18 C-11.53625 17.2575 -12.0725 16.515 -12.625 15.75 C-17.12093597 10.5441794 -23.37104268 7.95889518 -30.125 7 C-36.2809701 6.67090726 -40.81441095 8.14224931 -45.5 12.125 C-47.54639464 16.04725639 -48.14100288 19.68403258 -47 24 C-43.25211496 29.77923873 -38.94233738 31.81288472 -32.6875 34.375 C-30.89477725 35.14729269 -29.10312321 35.92207051 -27.3125 36.69921875 C-26.42046875 37.08255371 -25.5284375 37.46588867 -24.609375 37.86083984 C-0.21874562 48.50891962 -0.21874562 48.50891962 6 62 C8.55266629 69.65799887 8.36989122 80.39429042 4.8125 87.6875 C3.92151045 89.15428224 2.98765676 90.59648776 2 92 C1.2575 93.0725 0.515 94.145 -0.25 95.25 C-9.5131375 104.5131375 -20.23499023 107.82157482 -33.125 108.25 C-46.54179016 108.06620835 -58.33225744 103.80897303 -68 94.4375 C-70.83237278 91.51661557 -73.23060111 88.68430755 -75 85 C-74.56590611 81.42343429 -73.95082376 80.95689732 -71.05859375 78.421875 C-69.85935267 77.52078778 -68.65196793 76.63045726 -67.4375 75.75 C-66.51420898 75.06164062 -66.51420898 75.06164062 -65.57226562 74.359375 C-64.05505208 73.23028585 -62.52840817 72.11388857 -61 71 C-58.75822749 73.16122979 -56.82656536 75.45204204 -54.875 77.875 C-49.74671724 83.78722407 -43.31438651 87.49661867 -35.484375 88.23828125 C-29.05713646 88.41273487 -24.28595082 87.8273276 -19 84 C-15.51005709 80.5995428 -14.09796955 77.89847748 -14 73 C-15.8303531 67.10219557 -18.30058263 63.99287178 -23.74121094 61.06201172 C-25.75042199 60.08936388 -27.77598996 59.16407175 -29.8125 58.25 C-31.32868873 57.54939577 -32.8442998 56.84754028 -34.359375 56.14453125 C-35.12830078 55.78955566 -35.89722656 55.43458008 -36.68945312 55.06884766 C-61.83250376 43.43779571 -61.83250376 43.43779571 -67.09375 31.7421875 C-69.62342719 24.08773324 -69.97540495 15.56877204 -67 8 C-62.22995932 -1.38368658 -55.20123075 -6.69387064 -45.421875 -10.25 C-29.85838301 -15.06966204 -11.76783137 -11.16743181 0 0 Z " fill="#000000" transform="translate(823,116)"/>
<path d="M0 0 C2.09732932 1.94339689 3.41374436 3.56774135 5 6 C4.81439083 10.18062564 1.99918319 12.46788348 -0.8125 15.3125 C-1.68519531 16.21613281 -2.55789063 17.11976563 -3.45703125 18.05078125 C-6 20 -6 20 -8.17578125 19.9375 C-10.96567014 18.50372412 -12.817974 16.233979 -15 14 C-20.85031836 9.44975239 -26.31852967 7.5999409 -33.6875 8.1875 C-38.35365398 8.87818716 -41.30547336 10.48076922 -44.8125 13.625 C-46.64481069 17.28962138 -46.97911335 21.01913124 -46 25 C-42.13202209 31.13569053 -37.1037641 33.19444282 -30.5625 35.9375 C-28.58385779 36.80291173 -26.60599222 37.67010133 -24.62890625 38.5390625 C-23.66742676 38.95704102 -22.70594727 39.37501953 -21.71533203 39.80566406 C-18.10248311 41.39477186 -14.53944203 43.06673084 -11 44.8125 C-9.96875 45.31394531 -8.9375 45.81539062 -7.875 46.33203125 C-3.34431052 48.96056985 0.71600914 52.10471168 3.75 56.4375 C4.33007812 57.23994141 4.33007812 57.23994141 4.921875 58.05859375 C9.32120682 65.98057895 9.29608475 76.30753688 7.3125 85.01953125 C3.37223801 95.70749191 -4.05108181 101.33236629 -14.17578125 106.00390625 C-26.90370164 111.11978881 -41.4399825 109.94540405 -53.953125 104.78125 C-62.75806098 100.35418722 -70.15614588 93.63469648 -75 85 C-75 84.34 -75 83.68 -75 83 C-73.11549324 81.41179934 -71.23813233 79.94717539 -69.25 78.5 C-68.71117187 78.09652344 -68.17234375 77.69304687 -67.6171875 77.27734375 C-64.85197831 75.23378671 -62.14376045 73.40400952 -59 72 C-58.63648438 72.51949219 -58.27296875 73.03898437 -57.8984375 73.57421875 C-52.27403826 81.37627001 -46.41563717 86.46658396 -37 89 C-29.87612326 89.98089541 -23.89729663 89.28388529 -18 85 C-14.88624805 81.88624805 -13.21135276 79.438408 -13 75 C-13.8225404 69.88197082 -15.18138786 67.43589453 -19.22729492 64.22705078 C-22.25582683 62.13072777 -25.51544198 60.67318242 -28.875 59.1875 C-30.38209619 58.49606704 -31.88859209 57.80332436 -33.39453125 57.109375 C-34.15717285 56.76068359 -34.91981445 56.41199219 -35.70556641 56.05273438 C-61.71020315 44.12126027 -61.71020315 44.12126027 -67 30 C-69.28483411 21.32323732 -67.96600012 11.98579332 -63.578125 4.21875 C-57.87560158 -3.79865917 -49.8889965 -8.39455906 -40.375 -10.3125 C-25.53737534 -12.38939324 -11.73561165 -9.48237421 0 0 Z " fill="#000000" transform="translate(474,115)"/>
<path d="M0 0 C4.79483801 4.48583733 7.61890529 8.79367427 8.40625 15.41796875 C8.61788184 23.92733245 7.99399594 30.45077075 2 37 C-4.69295247 42.43250945 -10.82062174 43.47668908 -19.34375 43.40625 C-25.73197984 42.69644668 -30.19299604 39.84681962 -34.65234375 35.32421875 C-39.0226223 29.81386754 -40.29943513 23.92890358 -39.875 17 C-38.87166662 9.56621177 -36.00297472 3.90890458 -30.04296875 -0.7421875 C-20.61651664 -6.545854 -9.06530443 -6.47799652 0 0 Z " fill="#2099FC" transform="translate(161,117)"/>
<path d="M0 0 C5.66103994 4.81869702 9.36425782 9.47640281 10 17.09375 C10.27428749 25.13585915 8.62569771 30.46641137 3.53515625 36.76953125 C-1.95339468 42.63307635 -6.29473914 43.680591 -14.15234375 43.95703125 C-21.1641613 43.77857566 -25.71264332 42.68513576 -30.921875 37.9765625 C-35.94198793 32.63887552 -38.2812109 26.9364099 -38.71484375 19.64453125 C-38.45668856 12.34884103 -35.24930675 6.07085996 -29.96484375 1.08203125 C-20.97979856 -5.73420993 -9.36167547 -6.67043407 0 0 Z " fill="#2099FC" transform="translate(259.21484375,116.48046875)"/>
<path d="M0 0 C4.54544864 1.13636216 4.86710366 1.67661563 7.25 5.4375 C7.77078125 6.24058594 8.2915625 7.04367188 8.828125 7.87109375 C10 10 10 10 10 12 C13.45211818 8.9314505 15.48675179 5.62587844 17.65625 1.609375 C18.0996875 1.07828125 18.543125 0.5471875 19 0 C20.32 0 21.64 0 23 0 C23 7.59 23 15.18 23 23 C21.68 23 20.36 23 19 23 C18.67 19.04 18.34 15.08 18 11 C16.02 13.64 14.04 16.28 12 19 C8.00003714 17.66667905 7.16217663 15.5042173 5 12 C4.67 15.63 4.34 19.26 4 23 C2.68 23 1.36 23 0 23 C0 15.41 0 7.82 0 0 Z " fill="#000000" transform="translate(441,246)"/>
<path d="M0 0 C4.73751475 1.18437869 5.15741989 2.12377253 7.75 6.0625 C8.36359375 6.98160156 8.9771875 7.90070313 9.609375 8.84765625 C10.06828125 9.55792969 10.5271875 10.26820313 11 11 C13.79619184 8.35915215 16.04031641 5.93715383 18.125 2.6875 C18.74375 1.800625 19.3625 0.91375 20 0 C20.99 0 21.98 0 23 0 C23 7.59 23 15.18 23 23 C21.68 23 20.36 23 19 23 C18.67 19.04 18.34 15.08 18 11 C17.236875 12.32 16.47375 13.64 15.6875 15 C14.38671875 17.25 14.38671875 17.25 13 19 C12.01 19 11.02 19 10 19 C8.02002775 16.5013308 6.60045753 13.76835896 5 11 C4.67 14.96 4.34 18.92 4 23 C2.68 23 1.36 23 0 23 C0 15.41 0 7.82 0 0 Z " fill="#000000" transform="translate(656,246)"/>
<path d="M0 0 C4.85875292 1.21468823 5.72318644 2.68995912 8.75 6.5625 C9.54921875 7.57441406 10.3484375 8.58632812 11.171875 9.62890625 C11.77515625 10.41136719 12.3784375 11.19382812 13 12 C13.33 8.04 13.66 4.08 14 0 C15.32 0 16.64 0 18 0 C18 7.59 18 15.18 18 23 C13.73312192 20.86656096 12.16610234 19.06301178 9.25 15.375 C8.45078125 14.37210937 7.6515625 13.36921875 6.828125 12.3359375 C5.92320312 11.17964844 5.92320312 11.17964844 5 10 C4.67 14.29 4.34 18.58 4 23 C2.68 23 1.36 23 0 23 C0 15.41 0 7.82 0 0 Z " fill="#000000" transform="translate(908,246)"/>
<path d="M0 0 C4.95 0 9.9 0 15 0 C15 0.99 15 1.98 15 3 C11.37 3 7.74 3 4 3 C4 4.98 4 6.96 4 9 C7.3 9 10.6 9 14 9 C14 10.32 14 11.64 14 13 C10.7 13 7.4 13 4 13 C4 14.98 4 16.96 4 19 C7.63 19 11.26 19 15 19 C15 20.32 15 21.64 15 23 C10.05 23 5.1 23 0 23 C0 15.41 0 7.82 0 0 Z " fill="#000000" transform="translate(882,246)"/>
<path d="M0 0 C1.86621094 0.22485352 1.86621094 0.22485352 4 1 C5.18847656 2.91772461 5.18847656 2.91772461 6.140625 5.40234375 C6.66269531 6.73749023 6.66269531 6.73749023 7.1953125 8.09960938 C7.54335938 9.03611328 7.89140625 9.97261719 8.25 10.9375 C8.61351562 11.87013672 8.97703125 12.80277344 9.3515625 13.76367188 C12 20.64861372 12 20.64861372 12 23 C10.35 22.67 8.7 22.34 7 22 C6.67 20.35 6.34 18.7 6 17 C2.04 17.495 2.04 17.495 -2 18 C-2.99 20.475 -2.99 20.475 -4 23 C-5.32 23 -6.64 23 -8 23 C-7.38696372 17.59491957 -5.55619307 13.07560955 -3.4375 8.125 C-3.10814453 7.34125 -2.77878906 6.5575 -2.43945312 5.75 C-1.63203214 3.83091244 -0.81680231 1.9151135 0 0 Z M1 8 C0.67 9.65 0.34 11.3 0 13 C1.32 12.67 2.64 12.34 4 12 C3.34 10.68 2.68 9.36 2 8 C1.67 8 1.34 8 1 8 Z " fill="#000000" transform="translate(635,246)"/>
<path d="M0 0 C2.375 1 2.375 1 4 2 C3.67 3.32 3.34 4.64 3 6 C0.69 5.67 -1.62 5.34 -4 5 C-4 5.99 -4 6.98 -4 8 C-2.24755396 9.21662729 -2.24755396 9.21662729 -0.0625 10.25 C3.33584354 12.2515155 3.87592732 12.6632313 5.3125 16.5625 C5 20 5 20 2.9375 22.4375 C-0.48740802 24.25925959 -2.179549 24.63674183 -6 24 C-8.875 22 -8.875 22 -11 20 C-10.505 18.515 -10.505 18.515 -10 17 C-9.1646875 17.2165625 -9.1646875 17.2165625 -8.3125 17.4375 C-5.88615805 18.02769128 -3.45093655 18.523429 -1 19 C-0.96474868 17.11341126 -0.96474868 17.11341126 -2 15 C-3.155 14.401875 -4.31 13.80375 -5.5 13.1875 C-8.74841441 11.4929663 -8.91406136 11.25329283 -10.1875 7.5 C-10 4 -10 4 -8.4375 1.5625 C-5.34042822 -0.42280242 -3.62256375 -0.45282047 0 0 Z " fill="#000000" transform="translate(774,245)"/>
<path d="M0 0 C2.375 1.5 2.375 1.5 4 3 C3.67 3.99 3.34 4.98 3 6 C0.69 5.67 -1.62 5.34 -4 5 C-4 5.99 -4 6.98 -4 8 C-2.25052392 9.25328055 -2.25052392 9.25328055 -0.0625 10.3125 C2.99844359 12.12619078 3.83992369 12.63411129 5.3125 16 C5 19 5 19 3.125 21.9375 C-0.72645027 24.47945718 -2.5962627 24.25030692 -7.01171875 23.58984375 C-9 23 -9 23 -11 21 C-10.625 18.875 -10.625 18.875 -10 17 C-9.01 17 -8.02 17 -7 17 C-7 17.66 -7 18.32 -7 19 C-5.02 19 -3.04 19 -1 19 C-0.96474868 17.11341126 -0.96474868 17.11341126 -2 15 C-3.155 14.401875 -4.31 13.80375 -5.5 13.1875 C-8.74841441 11.4929663 -8.91406136 11.25329283 -10.1875 7.5 C-10 4 -10 4 -8.4375 1.5625 C-5.32360394 -0.43358722 -3.64004022 -0.5308392 0 0 Z " fill="#000000" transform="translate(827,245)"/>
<path d="M0 0 C0.66 0.33 1.32 0.66 2 1 C1.67 2.32 1.34 3.64 1 5 C-1.31 4.67 -3.62 4.34 -6 4 C-6 4.99 -6 5.98 -6 7 C-4.24755396 8.21662729 -4.24755396 8.21662729 -2.0625 9.25 C1.33584354 11.2515155 1.87592732 11.6632313 3.3125 15.5625 C3 19 3 19 0.9375 21.4375 C-2.48740802 23.25925959 -4.179549 23.63674183 -8 23 C-10.875 21 -10.875 21 -13 19 C-12.505 17.515 -12.505 17.515 -12 16 C-11.1646875 16.2165625 -11.1646875 16.2165625 -10.3125 16.4375 C-7.88615805 17.02769128 -5.45093655 17.523429 -3 18 C-3 17.01 -3 16.02 -3 15 C-4.75244604 13.78337271 -4.75244604 13.78337271 -6.9375 12.75 C-10.33584354 10.7484845 -10.87592732 10.3367687 -12.3125 6.4375 C-12 3 -12 3 -10 0.5 C-6.17278808 -1.41360596 -4.09692904 -1.00490712 0 0 Z " fill="#000000" transform="translate(752,246)"/>
<path d="M0 0 C2.375 1.5 2.375 1.5 4 3 C3.67 3.99 3.34 4.98 3 6 C0.69 5.67 -1.62 5.34 -4 5 C-4 5.99 -4 6.98 -4 8 C-2.25351457 9.28982345 -2.25351457 9.28982345 -0.0625 10.375 C3.85513291 12.69501665 3.85513291 12.69501665 5.1875 15.5 C4.94674187 18.71010834 3.91802652 20.44263131 2 23 C-0.47243647 24.23621824 -1.77317939 23.98408601 -4.5 23.6875 C-5.69109375 23.56955078 -5.69109375 23.56955078 -6.90625 23.44921875 C-9 23 -9 23 -11 21 C-10.625 18.875 -10.625 18.875 -10 17 C-9.01 17 -8.02 17 -7 17 C-7 17.66 -7 18.32 -7 19 C-5.02 19 -3.04 19 -1 19 C-0.96474868 17.11341126 -0.96474868 17.11341126 -2 15 C-3.155 14.401875 -4.31 13.80375 -5.5 13.1875 C-8.74841441 11.4929663 -8.91406136 11.25329283 -10.1875 7.5 C-10 4 -10 4 -8.4375 1.5625 C-5.32360394 -0.43358722 -3.64004022 -0.5308392 0 0 Z " fill="#000000" transform="translate(589,245)"/>
<path d="M0 0 C4.62 0 9.24 0 14 0 C14 0.99 14 1.98 14 3 C10.7 3 7.4 3 4 3 C4 4.98 4 6.96 4 9 C7.3 9 10.6 9 14 9 C14 10.32 14 11.64 14 13 C10.7 13 7.4 13 4 13 C4 14.98 4 16.96 4 19 C7.3 19 10.6 19 14 19 C14 20.32 14 21.64 14 23 C9.38 23 4.76 23 0 23 C0 15.41 0 7.82 0 0 Z " fill="#000000" transform="translate(716,246)"/>
<path d="M0 0 C4.62 0 9.24 0 14 0 C14 0.99 14 1.98 14 3 C10.7 3 7.4 3 4 3 C4 4.98 4 6.96 4 9 C7.3 9 10.6 9 14 9 C14 10.32 14 11.64 14 13 C10.7 13 7.4 13 4 13 C4 14.98 4 16.96 4 19 C7.3 19 10.6 19 14 19 C14 20.32 14 21.64 14 23 C9.38 23 4.76 23 0 23 C0 15.41 0 7.82 0 0 Z " fill="#000000" transform="translate(604,246)"/>
<path d="M0 0 C4.62 0 9.24 0 14 0 C14 0.99 14 1.98 14 3 C10.7 3 7.4 3 4 3 C4 4.98 4 6.96 4 9 C7.3 9 10.6 9 14 9 C14 10.32 14 11.64 14 13 C10.7 13 7.4 13 4 13 C4 14.98 4 16.96 4 19 C7.3 19 10.6 19 14 19 C14 20.32 14 21.64 14 23 C9.38 23 4.76 23 0 23 C0 15.41 0 7.82 0 0 Z " fill="#000000" transform="translate(526,246)"/>
<path d="M0 0 C0.33 1.32 0.66 2.64 1 4 C-2.28976808 5.09658936 -3.71303767 4.79953138 -7 4 C-7 4.99 -7 5.98 -7 7 C-5.26560179 8.43493107 -5.26560179 8.43493107 -3.0625 9.625 C0.97468354 11.97468354 0.97468354 11.97468354 2 13 C2.46808511 18.38297872 2.46808511 18.38297872 0.625 20.8125 C-2.65353301 23.20835105 -4.95976022 23.39610194 -9 23 C-11.875 21 -11.875 21 -14 19 C-13.505 17.515 -13.505 17.515 -13 16 C-12.1646875 16.2165625 -12.1646875 16.2165625 -11.3125 16.4375 C-8.88615805 17.02769128 -6.45093655 17.523429 -4 18 C-3.67 16.68 -3.34 15.36 -3 14 C-3.9075 13.773125 -4.815 13.54625 -5.75 13.3125 C-9.53062623 11.78570864 -10.96012491 10.50858515 -13 7 C-13 3.8478592 -12.44603462 2.53524154 -10.4375 0.125 C-6.72790463 -1.58712094 -3.9799464 -0.72965684 0 0 Z " fill="#000000" transform="translate(413,246)"/>
<path d="M0 0 C9.86328125 -0.390625 9.86328125 -0.390625 13 0 C14.92578125 1.79296875 14.92578125 1.79296875 16 4 C15.88081199 7.39685818 15.58128695 9.94000615 13.9375 12.9375 C10.72427107 14.69959328 7.6157826 14.17782537 4 14 C4 16.97 4 19.94 4 23 C2.68 23 1.36 23 0 23 C0 15.41 0 7.82 0 0 Z M4 3 C4 5.31 4 7.62 4 10 C5.98 10 7.96 10 10 10 C10.66 8.68 11.32 7.36 12 6 C10.81476003 4.39585785 10.81476003 4.39585785 9 3 C6.37429296 2.74930087 6.37429296 2.74930087 4 3 Z " fill="#000000" transform="translate(475,246)"/>
<path d="M0 0 C1.32 0 2.64 0 4 0 C4 6.27 4 12.54 4 19 C7.96 19 11.92 19 16 19 C16 20.32 16 21.64 16 23 C10.72 23 5.44 23 0 23 C0 15.41 0 7.82 0 0 Z " fill="#000000" transform="translate(857,246)"/>
<path d="M0 0 C1.32 0 2.64 0 4 0 C4 6.27 4 12.54 4 19 C7.63 19 11.26 19 15 19 C15 20.32 15 21.64 15 23 C10.05 23 5.1 23 0 23 C0 15.41 0 7.82 0 0 Z " fill="#000000" transform="translate(691,246)"/>
<path d="M0 0 C5.61 0 11.22 0 17 0 C17 0.99 17 1.98 17 3 C14.69 3 12.38 3 10 3 C10 9.6 10 16.2 10 23 C8.68 23 7.36 23 6 23 C6 16.4 6 9.8 6 3 C4.02 3 2.04 3 0 3 C0 2.01 0 1.02 0 0 Z " fill="#000000" transform="translate(936,246)"/>
<path d="M0 0 C0.99 0 1.98 0 3 0 C3 6.27 3 12.54 3 19 C6.96 19 10.92 19 15 19 C15 20.32 15 21.64 15 23 C10.05 23 5.1 23 0 23 C0 15.41 0 7.82 0 0 Z " fill="#000000" transform="translate(501,246)"/>
<path d="M0 0 C1.32 0 2.64 0 4 0 C4 7.59 4 15.18 4 23 C2.68 23 1.36 23 0 23 C0 15.41 0 7.82 0 0 Z " fill="#000000" transform="translate(842,246)"/>
<path d="M0 0 C1.32 0 2.64 0 4 0 C4 7.59 4 15.18 4 23 C2.68 23 1.36 23 0 23 C0 15.41 0 7.82 0 0 Z " fill="#000000" transform="translate(425,246)"/>
<path d="M0 0 C2.0625 0.4375 2.0625 0.4375 4 1 C3.25 5.75 3.25 5.75 1 8 C0.01 8 -0.98 8 -2 8 C-1.125 1.125 -1.125 1.125 0 0 Z " fill="#000000" transform="translate(789,264)"/>
<path d="M0 0 C2.0625 0.4375 2.0625 0.4375 4 1 C3.25 5.75 3.25 5.75 1 8 C0.01 8 -0.98 8 -2 8 C-1.125 1.125 -1.125 1.125 0 0 Z " fill="#000000" transform="translate(551,264)"/>
</svg>
