<svg xmlns="http://www.w3.org/2000/svg" width="15" height="16" viewBox="0 0 15 16" fill="none">
<path d="M1.5 5.33301H1.71429C2.53929 5.33301 3.21429 6.00801 3.21429 6.83301V14.333C3.21429 15.158 2.53929 15.833 1.71429 15.833H1.5C0.675 15.833 0 15.158 0 14.333V6.83301C0 6.00801 0.675 5.33301 1.5 5.33301ZM7.5 0.833008C8.325 0.833008 9 1.50801 9 2.33301V14.333C9 15.158 8.325 15.833 7.5 15.833C6.675 15.833 6 15.158 6 14.333V2.33301C6 1.50801 6.675 0.833008 7.5 0.833008ZM13.5 9.40444C14.325 9.40444 15 10.0794 15 10.9044V14.333C15 15.158 14.325 15.833 13.5 15.833C12.675 15.833 12 15.158 12 14.333V10.9044C12 10.0794 12.675 9.40444 13.5 9.40444Z" fill="#000000"/>
</svg>