<svg width="28" height="28" viewBox="0 0 28 28" fill="none" xmlns="http://www.w3.org/2000/svg">
<g clip-path="url(#clip0_1122_8586)">
<path d="M17.5574 5.83317C18.6969 6.0555 19.7441 6.6128 20.5651 7.43376C21.3861 8.25472 21.9434 9.30198 22.1657 10.4415M17.5574 1.1665C19.9248 1.42951 22.1326 2.48971 23.818 4.17301C25.5034 5.85632 26.5664 8.06268 26.8324 10.4298M25.6657 19.7398V23.2398C25.667 23.5648 25.6005 23.8864 25.4703 24.1841C25.3401 24.4818 25.1492 24.749 24.9098 24.9687C24.6704 25.1883 24.3877 25.3556 24.0799 25.4597C23.7721 25.5638 23.446 25.6024 23.1224 25.5732C19.5323 25.1831 16.0839 23.9563 13.054 21.9915C10.2352 20.2003 7.84525 17.8104 6.05403 14.9915C4.08233 11.9479 2.85531 8.48266 2.47236 4.8765C2.44321 4.55388 2.48155 4.22872 2.58494 3.92173C2.68834 3.61474 2.85453 3.33264 3.07292 3.0934C3.29131 2.85415 3.55713 2.663 3.85345 2.53211C4.14977 2.40123 4.47009 2.33348 4.79403 2.33317H8.29403C8.86022 2.3276 9.40912 2.5281 9.83842 2.89729C10.2677 3.26649 10.5481 3.77919 10.6274 4.33984C10.7751 5.45991 11.0491 6.55969 11.444 7.61817C11.601 8.03575 11.635 8.48957 11.5419 8.92586C11.4489 9.36216 11.2327 9.76263 10.919 10.0798L9.43736 11.5615C11.0982 14.4823 13.5166 16.9007 16.4374 18.5615L17.919 17.0798C18.2362 16.7662 18.6367 16.55 19.073 16.4569C19.5093 16.3639 19.9631 16.3979 20.3807 16.5548C21.4392 16.9498 22.539 17.2238 23.659 17.3715C24.2258 17.4515 24.7433 17.7369 25.1133 18.1736C25.4833 18.6103 25.6799 19.1677 25.6657 19.7398Z" stroke="#118DF0" stroke-width="2.5" stroke-linecap="round" stroke-linejoin="round"/>
</g>
<defs>
<clipPath id="clip0_1122_8586">
<rect width="28" height="28" fill="white"/>
</clipPath>
</defs>
</svg>
